<mxfile host="app.diagrams.net" agent="Mozilla/5.0 (Windows NT 10.0; Win64; x64) AppleWebKit/537.36 (KHTML, like Gecko) Chrome/128.0.0.0 Safari/537.36" version="24.7.7">
  <diagram name="第 1 页" id="wMmwnhfqBV-OYq5SIDlH">
    <mxGraphModel dx="1144" dy="609" grid="1" gridSize="10" guides="1" tooltips="1" connect="1" arrows="1" fold="1" page="0" pageScale="1" pageWidth="827" pageHeight="1169" math="0" shadow="0">
      <root>
        <mxCell id="0" />
        <mxCell id="1" parent="0" />
        <mxCell id="e9t3gRfrL-X7pLZmyNaz-1" value="zlbytes" style="rounded=0;whiteSpace=wrap;html=1;fontSize=15;" vertex="1" parent="1">
          <mxGeometry x="20" y="260" width="120" height="40" as="geometry" />
        </mxCell>
        <mxCell id="e9t3gRfrL-X7pLZmyNaz-2" value="zltail" style="rounded=0;whiteSpace=wrap;html=1;fontSize=15;" vertex="1" parent="1">
          <mxGeometry x="140" y="260" width="120" height="40" as="geometry" />
        </mxCell>
        <mxCell id="e9t3gRfrL-X7pLZmyNaz-3" value="zllen" style="rounded=0;whiteSpace=wrap;html=1;fontSize=15;" vertex="1" parent="1">
          <mxGeometry x="260" y="260" width="120" height="40" as="geometry" />
        </mxCell>
        <mxCell id="e9t3gRfrL-X7pLZmyNaz-4" value="entry" style="rounded=0;whiteSpace=wrap;html=1;fontSize=15;" vertex="1" parent="1">
          <mxGeometry x="380" y="260" width="120" height="40" as="geometry" />
        </mxCell>
        <mxCell id="e9t3gRfrL-X7pLZmyNaz-5" value="entry" style="rounded=0;whiteSpace=wrap;html=1;fontSize=15;" vertex="1" parent="1">
          <mxGeometry x="500" y="260" width="120" height="40" as="geometry" />
        </mxCell>
        <mxCell id="e9t3gRfrL-X7pLZmyNaz-6" value="......" style="rounded=0;whiteSpace=wrap;html=1;fontSize=15;" vertex="1" parent="1">
          <mxGeometry x="620" y="260" width="120" height="40" as="geometry" />
        </mxCell>
        <mxCell id="e9t3gRfrL-X7pLZmyNaz-7" value="entry" style="rounded=0;whiteSpace=wrap;html=1;fontSize=15;" vertex="1" parent="1">
          <mxGeometry x="740" y="260" width="120" height="40" as="geometry" />
        </mxCell>
        <mxCell id="e9t3gRfrL-X7pLZmyNaz-13" style="edgeStyle=orthogonalEdgeStyle;rounded=0;orthogonalLoop=1;jettySize=auto;html=1;exitX=0.5;exitY=0;exitDx=0;exitDy=0;entryX=0;entryY=0.5;entryDx=0;entryDy=0;" edge="1" parent="1" source="e9t3gRfrL-X7pLZmyNaz-8" target="e9t3gRfrL-X7pLZmyNaz-12">
          <mxGeometry relative="1" as="geometry" />
        </mxCell>
        <mxCell id="e9t3gRfrL-X7pLZmyNaz-8" value="zlend" style="rounded=0;whiteSpace=wrap;html=1;fontSize=15;" vertex="1" parent="1">
          <mxGeometry x="860" y="260" width="120" height="40" as="geometry" />
        </mxCell>
        <mxCell id="e9t3gRfrL-X7pLZmyNaz-10" value="ZipList示例结构" style="text;html=1;align=center;verticalAlign=middle;resizable=0;points=[];autosize=1;strokeColor=none;fillColor=none;fontStyle=1;fontSize=15;" vertex="1" parent="1">
          <mxGeometry x="430" y="208" width="130" height="30" as="geometry" />
        </mxCell>
        <mxCell id="e9t3gRfrL-X7pLZmyNaz-12" value="结束标识: 0xff" style="rounded=1;whiteSpace=wrap;html=1;fontSize=14;fillColor=#ffe6cc;strokeColor=#d79b00;" vertex="1" parent="1">
          <mxGeometry x="950" y="208" width="120" height="38" as="geometry" />
        </mxCell>
      </root>
    </mxGraphModel>
  </diagram>
</mxfile>
